<svg width="22" height="22" viewBox="0 0 22 22" fill="none" xmlns="http://www.w3.org/2000/svg">
    <path fill-rule="evenodd" clip-rule="evenodd"
        d="M1.83333 11C1.83333 5.9374 5.93739 1.83334 11 1.83334C16.0626 1.83334 20.1667 5.9374 20.1667 11C20.1667 16.0626 16.0626 20.1667 11 20.1667C5.93739 20.1667 1.83333 16.0626 1.83333 11ZM11 0.166672C5.01692 0.166672 0.166668 5.01692 0.166668 11C0.166668 16.9831 5.01692 21.8333 11 21.8333C16.9831 21.8333 21.8333 16.9831 21.8333 11C21.8333 5.01692 16.9831 0.166672 11 0.166672ZM10.9301 14.6944L16.7196 8.69437L15.2804 7.30564L10.1148 12.6591L6.61369 9.93773L5.38631 11.5168L9.59684 14.7896L10.3062 15.341L10.9301 14.6944Z"
        fill="#2B9B5B" />
</svg>